<?xml version="1.0" encoding="UTF-8" standalone="no"?>
<!-- Created with Inkscape (http://www.inkscape.org/) -->

<svg
   width="256"
   height="256"
   viewBox="0 0 256 256"
   version="1.1"
   id="svg8"
   inkscape:version="1.1.2 (0a00cf5339, 2022-02-04, custom)"
   sodipodi:docname="icon_v1.svg"
   inkscape:export-filename="/home/kane/Documents/CPP_PROJ/CleanEngine/icons/CleanEngine_16.png"
   inkscape:export-xdpi="6"
   inkscape:export-ydpi="6"
   xmlns:inkscape="http://www.inkscape.org/namespaces/inkscape"
   xmlns:sodipodi="http://sodipodi.sourceforge.net/DTD/sodipodi-0.dtd"
   xmlns="http://www.w3.org/2000/svg"
   xmlns:svg="http://www.w3.org/2000/svg"
   xmlns:rdf="http://www.w3.org/1999/02/22-rdf-syntax-ns#"
   xmlns:cc="http://creativecommons.org/ns#"
   xmlns:dc="http://purl.org/dc/elements/1.1/">
  <defs
     id="defs2">
    <rect
       x="99.172638"
       y="87.936109"
       width="85.897672"
       height="17.001391"
       id="rect26468" />
    <rect
       x="-170.44025"
       y="50.167563"
       width="184.5754"
       height="38.17058"
       id="rect18353" />
    <rect
       x="0.71578161"
       y="0.31730652"
       width="255.73972"
       height="256.68781"
       id="rect9750" />
    <rect
       x="0.71578161"
       y="0.31730652"
       width="255.73972"
       height="256.68781"
       id="rect13840" />
    <rect
       x="99.172638"
       y="87.936109"
       width="85.897672"
       height="17.001391"
       id="rect29156" />
  </defs>
  <sodipodi:namedview
     id="base"
     pagecolor="#ffffff"
     bordercolor="#666666"
     borderopacity="1.0"
     inkscape:pageopacity="0.0"
     inkscape:pageshadow="2"
     inkscape:zoom="2.8"
     inkscape:cx="114.28571"
     inkscape:cy="169.28571"
     inkscape:document-units="px"
     inkscape:current-layer="layer1"
     showgrid="false"
     units="px"
     inkscape:window-width="2560"
     inkscape:window-height="1371"
     inkscape:window-x="0"
     inkscape:window-y="32"
     inkscape:window-maximized="1"
     inkscape:pagecheckerboard="0"
     scale-x="1" />
  <metadata
     id="metadata5">
    <rdf:RDF>
      <cc:Work
         rdf:about="">
        <dc:format>image/svg+xml</dc:format>
        <dc:type
           rdf:resource="http://purl.org/dc/dcmitype/StillImage" />
      </cc:Work>
    </rdf:RDF>
  </metadata>
  <g
     inkscape:label="Layer 1"
     inkscape:groupmode="layer"
     id="layer1"
     transform="translate(0,-106.50001)">
    <path
       id="text9748"
       style="font-style:normal;font-variant:normal;font-weight:normal;font-stretch:normal;font-size:170.667px;line-height:1.25;font-family:Hack;-inkscape-font-specification:'Hack, Normal';font-variant-ligatures:normal;font-variant-caps:normal;font-variant-numeric:normal;font-variant-east-asian:normal;letter-spacing:0px;word-spacing:0px;white-space:pre;shape-inside:url(#rect9750);fill:#051e3e;fill-opacity:1;stroke-width:1.89311"
       d="M 57.6,106.76729 V 234.88144 362.50001 H 148.50254 198.4 V 348.96143 333.382 314.78816 c -7.33647,6.71388 -15.22523,11.83106 -23.66718,15.35309 -3.31049,1.33353 -6.6147,2.41214 -9.91075,3.24075 H 132.99082 C 104.96215,325.47546 90.45225,294.58611 89.46348,240.71518 H 190.77734 V 211.59523 H 90.28632 c 1.81223,-22.4363 6.44141,-39.99515 13.89611,-52.65786 7.04132,-11.96054 16.57383,-19.64249 28.59784,-23.05207 h 31.74102 c 3.29605,0.82861 6.59814,1.90723 9.90859,3.24075 8.64296,3.52203 16.63365,8.63921 23.97012,15.35309 v -47.71185 c -0.98593,-0.60138 -49.89746,0 -49.89746,0 z"
       sodipodi:nodetypes="cccccccccccccccsccccccc" />
    <text
       xml:space="preserve"
       transform="translate(-18.794152,60.057695)"
       id="text18351"
       style="font-size:13.3333px;line-height:1.25;font-family:Hack;-inkscape-font-specification:Hack;letter-spacing:0px;word-spacing:0px;white-space:pre;shape-inside:url(#rect18353)"><tspan
         x="-170.43945"
         y="61.964814"
         id="tspan29791">#051e3e • #251e3e • </tspan><tspan
         x="-170.43945"
         y="78.63144"
         id="tspan29793">#451e3e • #651e3e • </tspan><tspan
         x="-170.43945"
         y="100.13474"
         id="tspan29797"><tspan
           dx="0 8.0273237 8.0273237 8.0273228 8.0273247 8.0273247 8.0273209"
           id="tspan29795">#851e3e</tspan></tspan></text>
    <g
       aria-label="Clean"
       transform="matrix(1.9400322,0,0,1.940021,-79.169537,16.669846)"
       id="text26466"
       style="font-weight:bold;font-size:13.3333px;line-height:1.25;font-family:C059;-inkscape-font-specification:'C059, Bold';letter-spacing:0px;word-spacing:0px;white-space:pre;shape-inside:url(#rect26468);stroke-width:0.999986;fill:#251e3e;fill-opacity:1">
      <path
         d="m 108.47852,89.655543 h -0.57333 l -0.72,0.653331 c -0.88,-0.533332 -1.48,-0.706665 -2.44,-0.706665 -1.49333,0 -2.73332,0.506666 -3.69332,1.53333 -0.90666,0.959997 -1.346663,2.146661 -1.346663,3.599991 0,1.386663 0.400003,2.479993 1.266663,3.426658 0.92,1.01333 2.04,1.466663 3.61332,1.466663 2.36,0 3.70666,-1.133331 4.22666,-3.533325 l -0.82666,-0.199999 c -0.36,1.853328 -1.42667,2.906659 -2.96,2.906659 -1.81333,0 -2.66666,-1.37333 -2.66666,-4.306656 0,-2.773326 0.85333,-4.199989 2.49333,-4.199989 1.48,0 2.45333,1.026664 3.05333,3.253325 l 0.70666,-0.08 z"
         id="path29363"
         style="fill:#251e3e;fill-opacity:1" />
      <path
         d="m 112.95851,89.602209 -3.2,0.2 v 0.679998 h 0.25334 c 0.81333,0 0.86666,0.06667 0.85333,1.239997 v 5.786652 0.626665 0.09333 c -0.0133,0.186666 -0.0267,0.266666 -0.08,0.346666 -0.0933,0.12 -0.34667,0.173333 -0.93333,0.173333 h -0.0533 v 0.679998 h 4.15999 v -0.679998 h -0.0933 c -0.8,-0.02667 -0.90666,-0.09333 -0.90666,-0.573332 v -0.666665 z"
         id="path29360"
         style="fill:#251e3e;fill-opacity:1" />
      <path
         d="m 121.43847,96.388859 v -0.213333 c 0,-1.986662 -1.22666,-3.253325 -3.18665,-3.253325 -1.08,0 -1.96,0.346666 -2.62666,1.026664 -0.6,0.626665 -0.96,1.506663 -0.96,2.386661 0,0.959997 0.41333,1.906661 1.07999,2.479993 0.61334,0.519999 1.50667,0.813332 2.52,0.813332 1.55999,0 2.58666,-0.693332 3.17332,-2.119995 l -0.65333,-0.266666 c -0.53333,1.039997 -1.12,1.479996 -1.99999,1.479996 -0.61333,0 -1.14667,-0.293332 -1.48,-0.799998 -0.22667,-0.359999 -0.32,-0.773331 -0.33333,-1.533329 z m -4.45332,-0.733332 c 0,-1.266663 0.50667,-2.039994 1.30667,-2.039994 0.69333,0 1.05333,0.559998 1.05333,1.613329 0,0.319999 -0.0933,0.426665 -0.36,0.426665 z"
         id="path29357"
         style="fill:#251e3e;fill-opacity:1" />
      <path
         d="m 128.69177,95.188862 c 0,-0.866665 -0.16,-1.279997 -0.62666,-1.666663 -0.49333,-0.386665 -1.32,-0.599998 -2.37333,-0.599998 -1.83999,0 -3.03999,0.679998 -3.03999,1.719996 0,0.573331 0.45333,0.999997 1.08,0.999997 0.62666,0 1.09333,-0.373332 1.09333,-0.866664 0,-0.16 -0.0667,-0.346666 -0.18667,-0.506666 -0.12,-0.159999 -0.12,-0.159999 -0.12,-0.226666 0,-0.226666 0.44,-0.426665 0.97333,-0.426665 0.81333,0 1.10667,0.333332 1.10667,1.266663 v 0.693332 c -0.0667,0.01333 -0.33334,0.08 -0.82667,0.186666 -0.82666,0.173333 -1.13333,0.253332 -1.70666,0.453332 -1.24,0.413332 -1.77333,0.973331 -1.77333,1.853329 0,0.986664 0.74666,1.559996 2.05333,1.559996 1.14666,0 1.83999,-0.253333 2.54666,-0.946665 0.22666,0.599999 0.73333,0.946665 1.41333,0.946665 0.76,0 1.46666,-0.533332 1.46666,-1.106664 0,-0.133333 -0.0667,-0.213333 -0.2,-0.213333 -0.08,0 -0.16,0.02667 -0.26667,0.09333 -0.11999,0.08 -0.15999,0.09333 -0.25333,0.09333 -0.29333,0 -0.36,-0.173333 -0.36,-0.959997 z m -2.09332,1.106664 v 0.746665 c 0,1.026664 -0.46667,1.679995 -1.22667,1.679995 -0.52,0 -0.85333,-0.359999 -0.85333,-0.919997 0,-0.719999 0.41333,-1.119998 1.37333,-1.346664 z"
         id="path29354"
         style="fill:#251e3e;fill-opacity:1" />
      <path
         d="m 133.27843,93.1222 -3.05333,0.09333 v 0.679998 h 0.2 c 0.82667,0.01333 0.86667,0.06667 0.85334,1.29333 v 2.319994 0.613332 0.106666 c -0.0133,0.186666 -0.0267,0.266666 -0.08,0.346666 -0.0933,0.12 -0.34667,0.173333 -0.92,0.173333 h -0.0533 v 0.679998 h 4.06666 v -0.679998 c -0.76,0 -0.93333,-0.106667 -0.92,-0.573332 v -0.666665 -1.29333 c 0,-0.599999 0.0533,-0.946664 0.21334,-1.266664 0.21333,-0.479998 0.67999,-0.786664 1.15999,-0.786664 0.62667,0 0.97333,0.453332 0.97333,1.306663 v 2.039995 0.373332 0.346666 c -0.0133,0.186666 -0.0267,0.266666 -0.08,0.346666 -0.13333,0.133333 -0.38666,0.186666 -0.83999,0.173333 v 0.679998 h 4.06665 v -0.679998 h -0.0533 c -0.89333,-0.01333 -1,-0.08 -1,-0.573332 v -0.666665 -2.226661 c 0,-0.826665 -0.14666,-1.33333 -0.50666,-1.719996 -0.36,-0.413332 -0.94667,-0.639998 -1.65333,-0.639998 -1.05333,0 -1.72,0.386666 -2.37333,1.37333 z"
         id="path29351"
         style="fill:#251e3e;fill-opacity:1" />
    </g>
    <text
       xml:space="preserve"
       transform="matrix(1.9400322,0,0,1.940021,-96.434306,68.995525)"
       id="text29154"
       style="font-style:normal;font-variant:normal;font-weight:bold;font-stretch:normal;font-size:13.3333px;line-height:1.25;font-family:C059;-inkscape-font-specification:'C059, Bold';font-variant-ligatures:normal;font-variant-caps:normal;font-variant-numeric:normal;font-variant-east-asian:normal;letter-spacing:0px;word-spacing:0px;white-space:pre;shape-inside:url(#rect29156);fill:#251e3e;fill-opacity:1"><tspan
         x="99.171875"
         y="99.428851"
         id="tspan29799">Engine</tspan></text>
  </g>
</svg>
